<?xml version="1.0" encoding="UTF-8" standalone="no"?>
<!-- Created with Inkscape (http://www.inkscape.org/) -->

<svg
        xmlns:dc="http://purl.org/dc/elements/1.1/"
        xmlns:cc="http://creativecommons.org/ns#"
        xmlns:rdf="http://www.w3.org/1999/02/22-rdf-syntax-ns#"
        xmlns="http://www.w3.org/2000/svg"
        xmlns:xlink="http://www.w3.org/1999/xlink"
        xmlns:sodipodi="http://sodipodi.sourceforge.net/DTD/sodipodi-0.dtd"
        xmlns:inkscape="http://www.inkscape.org/namespaces/inkscape"
        width="96"
        height="96"
        viewBox="0 0 25.4 25.4"
        version="1.1"
        id="svg8"
        inkscape:version="0.92.1 r15371"
        sodipodi:docname="fb-mdpi.svg">
  <defs
     id="defs2">
    <linearGradient
       inkscape:collect="always"
       id="linearGradient832">
      <stop
         style="stop-color:#000000;stop-opacity:1;"
         offset="0"
         id="stop828" />
      <stop
         style="stop-color:#000000;stop-opacity:0;"
         offset="1"
         id="stop830" />
    </linearGradient>
    <linearGradient
       inkscape:collect="always"
       xlink:href="#linearGradient832"
       id="linearGradient834"
       x1="0.034751669"
       y1="284.38821"
       x2="25.422671"
       y2="284.38821"
       gradientUnits="userSpaceOnUse"
       gradientTransform="matrix(0.99077566,0,0,0.99347633,0.23434393,1.7717438)" />
  </defs>
  <sodipodi:namedview
     id="base"
     pagecolor="#ffffff"
     bordercolor="#666666"
     borderopacity="1.0"
     inkscape:pageopacity="0.0"
     inkscape:pageshadow="2"
     inkscape:zoom="5.6"
     inkscape:cx="0.85857784"
     inkscape:cy="96.44673"
     inkscape:document-units="mm"
     inkscape:current-layer="layer1"
     showgrid="false"
     inkscape:pagecheckerboard="true"
     units="px"
     width="96px"
     inkscape:window-width="1920"
     inkscape:window-height="1147"
     inkscape:window-x="1912"
     inkscape:window-y="-8"
     inkscape:window-maximized="1" />
  <metadata
     id="metadata5">
    <rdf:RDF>
      <cc:Work
         rdf:about="">
        <dc:format>image/svg+xml</dc:format>
        <dc:type
           rdf:resource="http://purl.org/dc/dcmitype/StillImage" />
        <dc:title></dc:title>
      </cc:Work>
    </rdf:RDF>
  </metadata>
  <g
     inkscape:label="Ebene 1"
     inkscape:groupmode="layer"
     id="layer1"
     transform="translate(0,-271.6)">
    <ellipse
            style="opacity:0.27300002;fill:#ffffff;fill-opacity:0.77102805;stroke:url(#linearGradient834);stroke-width:0.24108639;stroke-linecap:round;stroke-linejoin:miter;stroke-miterlimit:4;stroke-dasharray:none;stroke-dashoffset:0;stroke-opacity:1;paint-order:normal"
            id="path18"
            cx="12.845641"
            cy="284.30469"
            rx="12.45664"
            ry="12.57357" />
    <g
       aria-label="fast"
       style="font-style:normal;font-variant:normal;font-weight:normal;font-stretch:normal;font-size:10.58333302px;line-height:125%;font-family:'Ink Free';-inkscape-font-specification:'Ink Free';letter-spacing:0px;word-spacing:0px;fill:#cccccc;fill-opacity:1;stroke:none;stroke-width:0.26458332px;stroke-linecap:butt;stroke-linejoin:miter;stroke-opacity:1"
       id="text12">
      <path
         d="m 6.322125,276.63826 q 0,0.127 -0.0635,0.33867 -0.052917,0.20108 -0.127,0.20108 -0.074083,0 -0.1164167,-0.0635 -0.03175,-0.0741 -0.0635,-0.1905 -0.1164167,-0.35983 -0.3598333,-0.60325 -0.2328334,-0.254 -0.508,-0.254 -0.7408333,0 -1.0689166,1.00542 -0.3175,0.99483 -0.3175,2.33892 0.3175,-0.0212 0.7090833,-0.0952 0.4021666,-0.0847 0.5291666,-0.10584 0.7514167,-0.15875 0.9948333,-0.15875 0.2116667,0 0.2116667,0.1905 0,0.14817 -0.0635,0.3175 -0.0635,0.16934 -0.1905,0.16934 -0.1058333,0 -0.2116667,-0.0423 -0.1481666,-0.0635 -0.4021666,-0.0635 -0.1693333,0 -0.6985,0.10584 l -0.8466666,0.127 q 0,0.26458 0.0635,1.47108 0.1058333,1.86267 0.1058333,2.97392 0,0.20108 -0.042333,0.27516 -0.042333,0.0847 -0.1693334,0.0847 -0.1481666,0 -0.22225,-0.16933 -0.074083,-0.16934 -0.074083,-0.381 0,-1.21709 -0.15875,-3.82059 l -0.021167,-0.33866 q -0.084667,0.0106 -0.5503333,0.0953 -0.4550833,0.0847 -0.6667499,0.0847 -0.1164167,0 -0.2010834,-0.0529 -0.074083,-0.0529 -0.074083,-0.15875 0,-0.26459 0.1905,-0.27517 0.2751666,-0.0106 0.66675,-0.0423 0.3915833,-0.0423 0.6032499,-0.0847 0,-1.73567 0.4656667,-2.81517 0.47625,-1.09008 1.4075833,-1.09008 0.3386666,0 0.6244166,0.16933 0.2963334,0.16934 0.4656667,0.41275 0.1799167,0.24342 0.1799167,0.4445 z"
         style="font-style:normal;font-variant:normal;font-weight:normal;font-stretch:normal;font-family:'Ink Free';-inkscape-font-specification:'Ink Free';stroke-width:0.26458332px"
         id="path845" />
      <path
         d="m 10.935631,282.69193 q 0.01058,0.0741 0.08467,0.15875 0.07408,0.0741 0.07408,0.127 0,0.127 -0.105833,0.29633 -0.105834,0.15875 -0.211667,0.15875 -0.179917,0 -0.275167,-0.22225 -0.09525,-0.22225 -0.09525,-0.51858 0,-0.254 0.03175,-1.524 l 0.01058,-0.40217 q 0,-0.24341 -0.127,-0.34925 -0.4762502,0.80434 -0.8890001,1.397 -0.41275,0.59267 -1.04775,1.12184 -0.635,0.51858 -1.3335,0.51858 -0.3386666,0 -0.5291666,-0.21167 -0.1799167,-0.21166 -0.1799167,-0.55033 0,-0.42333 0.381,-1.15358 0.381,-0.74084 0.9736666,-1.49225 0.5926667,-0.762 1.1853333,-1.24884 0.3915834,-0.3175 0.6244167,-0.42333 0.2328333,-0.11642 0.41275,-0.11642 0.1693338,0 0.3492498,0.10584 0.179917,0.10583 0.306917,0.29633 0.127,0.1905 0.127,0.43392 0,0.32808 -0.179917,0.62441 l 0.179917,-0.0529 q 0.116416,0 0.137583,0.28575 0.01058,0.16933 0.02117,0.68791 0.02117,0.51859 0.03175,0.85725 0.01058,0.34925 0.02117,0.67734 0.01058,0.32808 0.02117,0.51858 z m -3.7359164,0.1905 q 0.5715,0 1.1006666,-0.42333 0.5291667,-0.42334 0.9419167,-1.00542 0.4233333,-0.59267 0.9313331,-1.44992 0.127,-0.3175 0.127,-0.68791 0,-0.22225 -0.137583,-0.381 -0.127,-0.16934 -0.3492502,-0.16934 -0.2645833,0 -0.6773333,0.35984 -0.47625,0.40216 -1.0054166,1.0795 -0.5291667,0.66675 -0.8784166,1.32291 -0.34925,0.65617 -0.34925,1.03717 0,0.3175 0.2963333,0.3175 z"
         style="font-style:normal;font-variant:normal;font-weight:normal;font-stretch:normal;font-family:'Ink Free';-inkscape-font-specification:'Ink Free';stroke-width:0.26458332px"
         id="path847" />
      <path
         d="m 15.965857,281.8876 q 0,0.46566 -0.381,0.89958 -0.370417,0.42333 -0.98425,0.67733 -0.613834,0.26459 -1.280584,0.26459 -0.455083,0 -0.613833,-0.0847 -0.15875,-0.0847 -0.15875,-0.23283 0,-0.0953 0.243417,-0.32809 0.243416,-0.24341 0.328083,-0.24341 0.127,0 0.127,0.0529 0,0.0423 -0.05292,0.0847 -0.05292,0.0423 -0.05292,0.0741 0,0.0423 0.127,0.0847 0.137583,0.0423 0.328083,0.0423 0.4445,0 0.889,-0.15875 0.455083,-0.16933 0.740833,-0.43391 0.28575,-0.26459 0.28575,-0.56092 0,-0.28575 -0.179916,-0.45508 -0.179917,-0.16934 -0.455084,-0.24342 -0.264583,-0.0847 -0.899583,-0.23283 -0.6985,-0.15875 -1.090083,-0.27517 -0.381,-0.127 -0.613833,-0.30692 -0.232834,-0.1905 -0.232834,-0.47625 0,-0.508 0.497417,-0.93133 0.497416,-0.42333 1.143,-0.66675 0.645583,-0.24342 0.994833,-0.24342 0.359833,0 0.359833,0.21167 0,0.127 -0.08467,0.28575 -0.08467,0.14817 -0.254,0.14817 -0.0635,0 -0.137584,-0.0423 -0.07408,-0.0529 -0.148166,-0.0529 -0.211667,0 -0.66675,0.13758 -0.455084,0.13758 -0.8255,0.41275 -0.370417,0.27517 -0.370417,0.66675 0,0.254 0.28575,0.381 0.296333,0.11642 1.090083,0.29633 0.09525,0.0317 0.1905,0.0529 0.09525,0.0106 0.169334,0.0317 0.814916,0.1905 1.248833,0.43392 0.433917,0.24341 0.433917,0.73025 z"
         style="font-style:normal;font-variant:normal;font-weight:normal;font-stretch:normal;font-family:'Ink Free';-inkscape-font-specification:'Ink Free';stroke-width:0.26458332px"
         id="path849" />
      <path
         d="m 21.557164,278.98776 q 0,0.17992 -0.15875,0.27517 -0.148167,0.0953 -0.550333,0.14817 -0.973667,0.16933 -1.090084,0.1905 l -0.687916,0.11641 q 0,0.55034 0.01058,1.15359 0.02117,0.60325 0.05292,1.05833 0.04233,0.61383 0.148166,0.94192 0.105834,0.32808 0.116417,0.37041 0,0.10584 -0.137583,0.1905 -0.127,0.0953 -0.243417,0.0953 -0.0635,0 -0.105833,-0.0423 -0.04233,-0.0317 -0.07408,-0.11642 -0.0635,-0.14816 -0.127,-0.55033 -0.05292,-0.40217 -0.08467,-0.889 -0.03175,-0.43392 -0.05292,-1.00542 -0.01058,-0.58208 -0.01058,-1.12183 -0.592667,0.0952 -1.217084,0.23283 -0.560916,0.11642 -0.66675,0.11642 -0.127,0 -0.243416,-0.0741 -0.105834,-0.0741 -0.105834,-0.20109 0,-0.13758 0.09525,-0.17991 0.09525,-0.0423 0.3175,-0.0423 0.15875,0 0.465667,-0.0529 0.306917,-0.0635 0.391583,-0.0847 0.709084,-0.13758 0.963084,-0.17992 0,-0.22225 -0.02117,-0.58208 -0.02117,-0.48683 -0.02117,-0.74083 0,-0.41275 0.02117,-0.635 0.03175,-0.23284 0.105833,-0.41275 0.08467,-0.21167 0.3175,-0.21167 0.09525,0 0.127,0.0317 0.03175,0.0317 0.03175,0.11642 0,0.0635 -0.05292,0.37041 -0.05292,0.30692 -0.05292,0.81492 0,0.39158 0.02117,0.87842 l 0.01058,0.28575 q 0.47625,-0.0741 1.883833,-0.39159 0.08467,-0.0212 0.137584,-0.14816 0.0635,-0.127 0.127,-0.127 0.116416,0 0.232833,0.13758 0.127,0.127 0.127,0.26458 z"
         style="font-style:normal;font-variant:normal;font-weight:normal;font-stretch:normal;font-family:'Ink Free';-inkscape-font-specification:'Ink Free';stroke-width:0.26458332px"
         id="path851" />
    </g>
    <g
       aria-label="bike"
       style="font-style:normal;font-variant:normal;font-weight:normal;font-stretch:normal;font-size:10.58333302px;line-height:125%;font-family:'Ink Free';-inkscape-font-specification:'Ink Free';letter-spacing:0px;word-spacing:0px;fill:#cccccc;fill-opacity:1;stroke:none;stroke-width:0.26458332px;stroke-linecap:butt;stroke-linejoin:miter;stroke-opacity:1"
       id="text16">
      <path
         d="m 12.663773,282.64778 q 0,0.89958 -0.719667,1.9685 -0.719667,1.05833 -1.830917,1.87325 -0.4656664,0.34925 -0.6984997,0.34925 -0.1164167,0 -0.1905,-0.0847 -0.074083,-0.0847 -0.074083,-0.20108 0,-0.11642 0.09525,-0.23283 0.1058334,-0.11642 0.3069167,-0.20109 0.7302504,-0.3175 1.3335004,-0.91016 0.60325,-0.60325 0.941916,-1.27 0.338667,-0.66675 0.338667,-1.17475 0,-0.20109 -0.09525,-0.29634 -0.08467,-0.10583 -0.28575,-0.10583 -0.4445,0 -0.910167,0.35983 -0.465666,0.35984 -0.867833,0.94192 -0.3069167,0.4445 -0.5926667,1.06892 -0.28575,0.62441 -0.4339167,1.32291 -0.084667,0.37042 -0.3598333,0.37042 -0.074083,0 -0.15875,-0.127 -0.084667,-0.13758 -0.084667,-0.24342 0,-1.22766 -0.084667,-3.60891 -0.084667,-2.38125 -0.1164167,-2.71992 0,-0.0635 -0.010583,-0.11642 -0.010583,-0.0635 -0.021167,-0.11641 -0.010583,-0.0635 -0.021167,-0.127 -0.010583,-0.0741 -0.010583,-0.13759 0,-0.24341 0.22225,-0.24341 0.1799167,0 0.28575,0.23283 0.1164167,0.22225 0.1164167,0.508 v 0.56092 q 0,2.51883 0.074083,3.8735 0.042333,0.66675 0.084667,0.74083 0.1164166,-0.34925 0.3598333,-0.78317 0.254,-0.43391 0.5291666,-0.80433 0.4974171,-0.67733 1.0795001,-1.0795 0.582083,-0.41275 1.058333,-0.41275 0.328084,0 0.529167,0.21167 0.211667,0.21166 0.211667,0.61383 z"
         style="font-style:normal;font-variant:normal;font-weight:normal;font-stretch:normal;font-family:'Ink Free';-inkscape-font-specification:'Ink Free';stroke-width:0.26458332px"
         id="path836" />
      <path
         d="m 14.196371,280.11836 q 0,0.15875 -0.34925,0.15875 -0.179916,0 -0.370416,-0.14816 -0.179917,-0.14817 -0.179917,-0.24342 0,-0.11642 0.105833,-0.22225 0.116417,-0.10583 0.232834,-0.10583 0,0 0.07408,0.0317 0.08467,0.0212 0.1905,0.13758 0.08467,0.0847 0.1905,0.22225 0.105833,0.13758 0.105833,0.16933 z m 0.264584,6.65692 q 0,0.10583 -0.09525,0.15875 -0.08467,0.0635 -0.201084,0.0529 -0.148166,-0.0106 -0.22225,-0.47625 -0.0635,-0.46567 -0.137583,-1.76742 -0.04233,-0.85725 -0.07408,-1.67217 -0.03175,-0.8255 -0.04233,-1.27 0,-0.11641 0.03175,-0.16933 0.04233,-0.0635 0.148167,-0.0635 0.243417,0 0.306917,0.20108 0.0635,0.20109 0.0635,0.77259 l -0.01058,1.24883 q 0,1.06892 0.0635,1.7145 0,0.0317 0.09525,0.67733 0.07408,0.4445 0.07408,0.59267 z"
         style="font-style:normal;font-variant:normal;font-weight:normal;font-stretch:normal;font-family:'Ink Free';-inkscape-font-specification:'Ink Free';stroke-width:0.26458332px"
         id="path838" />
      <path
         d="m 20.628392,282.18211 q 0,0.14817 -0.148167,0.3175 -0.137583,0.15875 -0.264583,0.15875 -0.08467,0 -0.1905,-0.0847 -0.105833,-0.0952 -0.148167,-0.0952 -0.28575,0 -0.910166,0.39158 -0.624417,0.39158 -1.280584,0.92075 -0.656166,0.52917 -1.005416,0.89958 l 0.01058,0.1905 q 0.804333,0.37042 1.788583,0.79375 0.98425,0.42334 1.36525,0.49742 0.148167,0.0212 0.296333,0.0317 0.148167,0.0106 0.211667,0.0106 0.09525,0 0.15875,0.0106 0.0635,0.0106 0.0635,0.0423 0,0.127 -0.201083,0.254 -0.1905,0.127 -0.582083,0.127 -0.34925,0 -0.9525,-0.254 -0.592667,-0.26458 -1.407584,-0.68792 l -0.66675,-0.32808 q 0.137584,1.34408 0.137584,1.48167 0,0.11641 -0.116417,0.1905 -0.116417,0.0741 -0.254,0.0741 -0.08467,0 -0.137583,-0.254 -0.05292,-0.254 -0.127,-1.00542 l -0.07408,-0.64558 q -0.127,-0.0529 -0.22225,-0.14817 -0.09525,-0.10583 -0.09525,-0.1905 0,-0.127 0.211667,-0.29633 -0.01058,-0.5715 -0.0635,-1.62983 -0.04233,-1.05834 -0.0635,-1.54517 l -0.05292,-1.47108 q 0,-0.29634 0.07408,-0.508 0.07408,-0.21167 0.328083,-0.21167 0.09525,0 0.127,0.0423 0.03175,0.0318 0.03175,0.13759 0,0.48683 0.0635,2.26483 0.07408,1.76742 0.116417,2.51883 2.360083,-2.24366 3.450166,-2.24366 0.22225,0 0.370417,0.0847 0.15875,0.0741 0.15875,0.15875 z"
         style="font-style:normal;font-variant:normal;font-weight:normal;font-stretch:normal;font-family:'Ink Free';-inkscape-font-specification:'Ink Free';stroke-width:0.26458332px"
         id="path840" />
      <path
         d="m 24.939776,284.04478 q 0.07408,0 0.07408,0.15875 0,0.1905 -0.28575,0.83608 -0.275167,0.64559 -0.846667,1.19592 -0.560916,0.55033 -1.386416,0.55033 -0.677334,0 -1.132417,-0.42333 -0.455083,-0.42333 -0.455083,-1.30175 0,-0.8255 0.381,-1.62983 0.381,-0.81492 0.994833,-1.32292 0.613833,-0.51858 1.27,-0.51858 0.391583,0 0.656166,0.17991 0.275167,0.16934 0.275167,0.49742 0,0.37042 -0.423333,0.71967 -0.41275,0.34925 -1.0795,0.61383 -0.66675,0.26458 -1.375833,0.381 -0.127,0.48683 -0.127,0.9525 0,0.61383 0.28575,0.9525 0.296333,0.33867 0.836083,0.33867 0.814917,0 1.322916,-0.58209 0.508,-0.58208 0.846667,-1.31233 0.02117,-0.0423 0.07408,-0.15875 0.05292,-0.127 0.09525,-0.127 z m -0.931333,-1.66158 q 0,-0.16934 -0.179917,-0.26459 -0.169333,-0.0952 -0.402166,-0.0952 -0.402167,0 -0.772583,0.26459 -0.370417,0.26458 -0.624417,0.635 -0.243417,0.37041 -0.3175,0.65616 0.486833,-0.0529 1.026583,-0.27516 0.53975,-0.22225 0.899583,-0.48684 0.370417,-0.26458 0.370417,-0.43391 z"
         style="font-style:normal;font-variant:normal;font-weight:normal;font-stretch:normal;font-family:'Ink Free';-inkscape-font-specification:'Ink Free';stroke-width:0.26458332px"
         id="path842" />
    </g>

  </g>
</svg>
